<svg xmlns="http://www.w3.org/2000/svg" xmlns:xlink="http://www.w3.org/1999/xlink" version="1.1" id="Layer_1" x="0px" y="0px" width="100px" height="100px" viewBox="0 0 100 100" enable-background="new 0 0 100 100" xml:space="preserve">
<path d="M32.407,81.678h15.662c0.34-1.091,0.682-2.236,1.021-3.439H31.385C31.724,79.441,32.068,80.588,32.407,81.678z"/>
<path d="M33.687,86.001h13.101c0.285-0.913,0.57-1.87,0.854-2.877h-14.81C33.117,84.131,33.404,85.089,33.687,86.001z"/>
<path d="M40.263,22.359h9.812c-2.488-4.672-9.622-14.157-9.862-14.157c-0.24,0-7.324,9.485-9.812,14.157h9.811H40.263z"/>
<path d="M40.442,48.583c0-5.479,4.254-9.973,9.632-10.376V25.266H30.402v29.778l-10.01,11.123V71.5h10.01v4.375h19.672V58.96  C44.696,58.557,40.442,54.062,40.442,48.583z"/>
<path d="M53.646,81.678h15.662c0.339-1.09,0.683-2.236,1.021-3.439H52.625C52.965,79.441,53.307,80.587,53.646,81.678z"/>
<path d="M54.928,86.001h13.101c0.283-0.912,0.57-1.87,0.854-2.877H54.072C54.357,84.131,54.643,85.088,54.928,86.001z"/>
<path d="M61.504,22.359h9.811c-2.488-4.672-9.572-14.157-9.812-14.157c-0.239,0-7.373,9.485-9.861,14.157h9.812H61.504z"/>
<path d="M81.324,66.167L71.313,55.043V25.266H51.642v12.94c5.378,0.403,9.633,4.898,9.633,10.377s-4.255,9.974-9.633,10.376v16.915  h19.672V71.5h10.011V66.167z"/>
<path d="M50.858,42.167c-3.538,0-6.417,2.878-6.417,6.417c0,3.538,2.878,6.417,6.417,6.417s6.416-2.879,6.416-6.417  C57.274,45.045,54.396,42.167,50.858,42.167z"/>
</svg>